<svg height="25" width="25" viewBox="-79 0 512 512" xmlns="http://www.w3.org/2000/svg">
  <path d="M353.101562 485.515625H0V0h273.65625l79.445312 79.449219z" fill="#e3e4d8"/>
  <path d="M61.792969 114.757812h229.515625v194.207032H61.792969z" fill="#fff"/>
  <path d="M273.65625 0v79.449219h79.445312z" fill="#d0cebd"/>
  <path d="M0 353.101562h353.101562v158.898438H0z" fill="#b53438"/>
  <path d="M214.386719 203.035156l-53.414063 56.082032-22.257812-20.773438-76.921875 70.621094h229.515625v-26.480469z" fill="#b53438"/>
  <path d="M141.242188 172.136719c0 12.191406-9.882813 22.070312-22.070313 22.070312s-22.070313-9.878906-22.070313-22.070312c0-12.1875 9.882813-22.066407 22.070313-22.066407s22.070313 9.878907 22.070313 22.066407z" fill="#eacd3b"/>
  <g fill="#fff">
    <path d="M282.449219 485.515625h-17.550781c-14.636719 0-26.554688-11.914063-26.554688-26.5625v-52.804687c0-14.644532 11.917969-26.5625 26.5625-26.5625h35.230469c4.875 0 8.828125 3.953124 8.828125 8.828124 0 4.871094-3.953125 8.828126-8.828125 8.828126h-35.230469c-4.917969 0-8.90625 4-8.90625 8.90625v52.804687c0 4.910156 3.988281 8.910156 8.90625 8.910156h17.550781c4.882813 0 8.851563-3.972656 8.851563-8.855469v-26.457031c0-4.871093 3.957031-8.828125 8.828125-8.828125 4.875 0 8.828125 3.957032 8.828125 8.828125v26.457031c0 14.617188-11.890625 26.507813-26.515625 26.507813z"/>
    <path d="M300.136719 441.378906h-17.652344c-4.875 0-8.828125-3.953125-8.828125-8.828125 0-4.871093 3.953125-8.828125 8.828125-8.828125h17.652344c4.875 0 8.828125 3.957032 8.828125 8.828125 0 4.875-3.953125 8.828125-8.828125 8.828125z"/>
    <path d="M150.070312 485.515625c-4.875 0-8.828124-3.953125-8.828124-8.824219v-88.277344c0-4.875 3.953124-8.828124 8.828124-8.828124 4.871094 0 8.828126 3.953124 8.828126 8.828124v88.277344c0 4.871094-3.957032 8.824219-8.828126 8.824219z"/>
    <path d="M176.550781 450.207031h-26.480469c-4.875 0-8.828124-3.953125-8.828124-8.828125v-52.964844c0-4.875 3.953124-8.828124 8.828124-8.828124h26.480469c19.472657 0 35.3125 15.835937 35.3125 35.3125 0 19.472656-15.839843 35.308593-35.3125 35.308593zm-17.652343-17.65625h17.652343c9.738281 0 17.65625-7.917969 17.65625-17.652343 0-9.738282-7.917969-17.65625-17.65625-17.65625h-17.652343z"/>
    <path d="M79.449219 485.515625c-19.472657 0-35.3125-15.835937-35.3125-35.308594 0-4.871093 3.957031-8.828125 8.828125-8.828125 4.875 0 8.828125 3.957032 8.828125 8.828125 0 9.738281 7.917969 17.65625 17.65625 17.65625 9.734375 0 17.652343-7.917969 17.652343-17.65625v-61.792969c0-4.875 3.957032-8.828124 8.828126-8.828124 4.875 0 8.828124 3.953124 8.828124 8.828124v61.792969c0 19.472657-15.835937 35.308594-35.308593 35.308594z"/>
  </g>
</svg>
