<svg xmlns="http://www.w3.org/2000/svg" viewBox="0 0 64 64" id="law-folder">
  <path d="M3.077,59.143H61.643a1,1,0,0,0,1-1V7.5a1,1,0,0,0-1-1H6.831a1,1,0,0,0-1,1v5.155H3.077a1,1,0,0,0-1,1V58.143A1,1,0,0,0,3.077,59.143ZM7.831,8.5H60.643V21.666H57.107V15.305a1,1,0,0,0-1-1H28.382l-1.364-1.358a1,1,0,0,0-.706-.292H7.831ZM35.776,21.666l-5.385-5.361H55.107v5.361Zm-31.7-7.011H25.9l8.759,8.719a1,1,0,0,0,.7.292h25.28V57.143H4.077Z"></path>
  <path d="M55.852 48.786H38.5a1 1 0 000 2H55.852a1 1 0 100-2zM55.852 43.643H45.059a1 1 0 000 2H55.852a1 1 0 100-2zM38.068 37.541L23.991 23.464a1.029 1.029 0 00-1.414 0L14.562 31.48a1 1 0 000 1.414l4.639 4.64-8.519 8.521a3.392 3.392 0 104.8 4.8L24 42.331l1.65 1.65h0l2.99 2.99a1 1 0 001.414 0l8.015-8.017A1 1 0 0038.068 37.541zM19.673 35.177l6.6-6.6 6.683 6.683-6.6 6.6zm3.611-9.592l1.576 1.576-6.6 6.6-1.576-1.576zm-9.22 23.852a1.425 1.425 0 01-1.968 0 1.388 1.388 0 010-1.968l8.519-8.521 1.969 1.969zm15.282-4.586L27.77 43.274l6.6-6.6 1.576 1.576z"></path>
</svg>
