<svg xmlns="http://www.w3.org/2000/svg" width="20" height="20" viewBox="0 0 20 20">
  <polygon fill="transparent" points="18 20 2 20 2 0 13.2 0 18 5 18 6.7 18 20"></polygon>
  <path fill="gray" d="M13.2,0H2V20H18V5ZM17,6.7V19H3V1h8V6h6Z"></path>
  <path fill="#e42127" d="M7.4,11.56a1.52,1.52,0,0,1-.49,1.23,2.11,2.11,0,0,1-1.42.43H5V15H4V10H5.57a2.09,2.09,0,0,1,1.37.39A1.44,1.44,0,0,1,7.4,11.56ZM5,12.35h.35a1.13,1.13,0,0,0,.72-.19.68.68,0,0,0,.24-.56.71.71,0,0,0-.2-.55,1,1,0,0,0-.63-.18H5Z"></path>
  <path fill="#e42127" d="M12.35,12.45a2.43,2.43,0,0,1-.7,1.89,2.85,2.85,0,0,1-2,.66H8.21V10H9.77a2.68,2.68,0,0,1,1.91.65A2.37,2.37,0,0,1,12.35,12.45Zm-1.1,0c0-1.07-.47-1.61-1.42-1.61H9.27v3.25h.45C10.74,14.12,11.25,13.58,11.25,12.48Z"></path>
  <path fill="#e42127" d="M14.17,15h-1V10H16v.87H14.17v1.29h1.7V13h-1.7Z"></path>
</svg>
